<svg xmlns="http://www.w3.org/2000/svg" id="SvgjsSvg426229" width="4096" height="1738.9085821263689" version="1.1" xmlns:xlink="http://www.w3.org/1999/xlink" xmlns:svgjs="http://svgjs.com/svgjs"><defs id="SvgjsDefs426230"></defs><g id="SvgjsG426231" transform="translate(328, 328) scale(34.4)" opacity="1"><defs id="SvgjsDefs110599"></defs><g id="SvgjsG110600" transform="scale(0.21645021645021645)" opacity="1"><g id="SvgjsG110601" class="RpFRqihss" transform="translate(-9.189242739525904, -4.4942346843731835) scale(0.15444105444581374)" light-content="false" non-strokable="false" fill="#a31f2e"><path d="M146.6 312.2L420 154.3c7.6 3.1 15.8 4.8 24.4 4.8 35.8 0 65-29.2 65-65s-29.2-65-65-65-64.8 29-65 64.7L97 256.9c-23.1 13.4-37.5 38.3-37.5 65.1v347.2c0 26.7 14.4 51.7 37.6 65.1l318 183.6c4.4 2.5 9.4 3.9 14.4 3.9s10-1.3 14.4-3.9c9-5.2 14.4-14.6 14.4-25v-9.3c0-15.2-8.2-29.3-21.3-36.9L146.6 679c-8.9-5.2-14.5-14.8-14.5-25.1V337.3c0-10.3 5.6-20 14.5-25.1zM405.4 78.9c6.1-15.7 21.3-26.7 39.1-26.7 2.2 0 4.3.2 6.4.5 2.6.4 5.1 1 7.4 1.9 16.4 5.7 28.1 21.3 28.1 39.6 0 20.1-14.2 37-33.1 41-2.8.6-5.8.9-8.8.9-23.2 0-42-18.8-42-42 0-5.4 1.1-10.5 2.9-15.2zm498.2 197.9L585.4 93.1c-4.5-2.6-9.5-3.9-14.6-3.9s-10.1 1.4-14.6 3.9c-9.1 5.3-14.6 14.7-14.6 25.3v12.9c0 12.6 6.8 24.3 17.7 30.6L854 332c8.6 4.9 13.9 14.1 13.9 24v318c0 9.9-5.3 19.1-13.9 24L587.6 848c-8.9-4.6-19-7.2-29.6-7.2-35.8 0-65 29.2-65 65s29.2 65 65 65c32.5 0 59.5-23.9 64.3-55.1l281.4-162.5c22.8-13.2 36.9-37.6 36.9-63.9V340.7c-.1-26.3-14.2-50.8-37-63.9zM587 936.1c-4.9 4.7-10.8 8.2-17.5 10.1-3.7 1.1-7.6 1.6-11.6 1.6h-1.3c-22.6-.7-40.7-19.2-40.7-41.9 0-23.2 18.8-42 42-42 2.2 0 4.4.2 6.5.5 20.1 3.1 35.5 20.5 35.5 41.5 0 11.9-4.9 22.6-12.9 30.2z"></path><path d="M689.4 551L196.9 681.6c-8.6 2.3-16.8-13.8-12-23.6l11.3-23.3c9-18.6 22.7-31 38.9-35.3L724 469.8c8.6-2.3 16.8 13.8 12 23.6l-13.2 27.4c-7.8 15.9-19.5 26.6-33.4 30.2zm3.6 118.3l-304.9 80.8c-5.3 1.4-12.1-15-10-24.2l5.1-21.6c4-17.3 11.7-28.1 21.8-30.7l302.7-80.2c5.3-1.4 12.1 15 10 24.2l-5.9 25.4c-3.6 14.8-10.2 24-18.8 26.3zm-78.9-310.8l-304.9 80.8c-5.3 1.4-12.1-15-10-24.2l5.1-21.6c4-17.3 11.7-28.1 21.8-30.7l302.7-80.2c5.3-1.4 12.1 15 10 24.2l-5.9 25.4c-3.7 14.8-10.2 24-18.8 26.3zM778 418.1L285.6 548.6c-8.6 2.3-16.8-13.8-12-23.6l11.3-23.3c9-18.6 22.7-31 38.9-35.3l488.9-129.6c8.6-2.3 16.8 13.8 12 23.6l-13.2 27.4c-7.8 16-19.5 26.6-33.5 30.3z"></path></g><g id="SvgjsG110602" class="text" transform="translate(312.3518617457256, 79.1715291973463) scale(1)" light-content="false" fill="#292929"><path d="M-148.88 0L-140.07 0C-139.01 0 -137.87 0.04 -136.65 0.11C-135.44 0.19 -134.23 0.27 -133.04 0.34C-131.85 0.42 -130.73 0.49 -129.66 0.57C-128.6 0.65 -127.66 0.68 -126.85 0.68C-121.48 0.68 -116.86 -0.01 -112.99 -1.41C-109.12 -2.8 -105.94 -4.75 -103.46 -7.25C-100.98 -9.76 -99.15 -12.71 -97.99 -16.1C-96.82 -19.5 -96.24 -23.22 -96.24 -27.27C-96.24 -31.47 -96.86 -35.22 -98.1 -38.51C-99.34 -41.8 -101.18 -44.58 -103.61 -46.83C-106.04 -49.08 -109.05 -50.8 -112.65 -51.99C-116.24 -53.18 -120.4 -53.78 -125.11 -53.78C-125.97 -53.78 -127.02 -53.74 -128.26 -53.67C-129.5 -53.59 -130.8 -53.51 -132.17 -53.44C-133.54 -53.36 -134.87 -53.3 -136.16 -53.25C-137.45 -53.2 -138.58 -53.17 -139.54 -53.17L-148.88 -53.17L-148.88 -48.92L-141.97 -48.92L-141.97 -4.25L-148.88 -4.25ZM-126.24 -49.53C-122.24 -49.53 -118.93 -48.84 -116.29 -47.47C-113.66 -46.11 -111.56 -44.34 -109.99 -42.16C-108.42 -39.98 -107.32 -37.57 -106.69 -34.94C-106.05 -32.31 -105.74 -29.75 -105.74 -27.27C-105.74 -24.08 -106.06 -21.05 -106.72 -18.19C-107.38 -15.33 -108.48 -12.82 -110.03 -10.67C-111.57 -8.52 -113.61 -6.8 -116.14 -5.51C-118.67 -4.22 -121.84 -3.57 -125.64 -3.57C-125.94 -3.57 -126.47 -3.58 -127.23 -3.61C-127.99 -3.63 -128.79 -3.66 -129.62 -3.68C-130.46 -3.71 -131.23 -3.73 -131.94 -3.76C-132.65 -3.79 -133.16 -3.82 -133.46 -3.87L-133.46 -49.15C-132.7 -49.3 -131.66 -49.4 -130.35 -49.45C-129.03 -49.5 -127.66 -49.53 -126.24 -49.53Z M-49.07 -53.17L-89.48 -53.17L-89.48 -48.92L-82.57 -48.92L-82.57 -4.25L-89.48 -4.25L-89.48 0L-47.78 0L-47.78 -13.22L-52.64 -13.22L-52.64 -5.77L-54.16 -4.25L-74.06 -4.25L-74.06 -24.99L-61.22 -24.99L-60.08 -23.78L-60.08 -20.59L-55.22 -20.59L-55.22 -33.57L-60.08 -33.57L-60.08 -30.38L-61.22 -29.24L-74.06 -29.24L-74.06 -48.92L-55.45 -48.92L-53.93 -47.25L-53.93 -40.71L-49.07 -40.71Z M3.72 -48.92L-8.43 -13.6L-10.71 -6.23L-11.01 -6.23L-13.22 -13.44L-26.89 -48.92L-19.6 -48.92L-19.6 -53.17L-42.92 -53.17L-42.92 -48.92L-36.38 -48.92L-16.64 0L-8.2 0L9.42 -48.92L15.65 -48.92L15.65 -53.17L-3.19 -53.17L-3.19 -48.92Z M18.08 0L27.04 0C29.32 0 31.69 0.08 34.14 0.23C36.6 0.38 38.82 0.46 40.79 0.46C43.63 0.46 46.42 0.16 49.18 -0.42C51.94 -1 54.41 -1.92 56.59 -3.19C58.77 -4.46 60.53 -6.08 61.87 -8.05C63.21 -10.03 63.88 -12.38 63.88 -15.12C63.88 -17.24 63.48 -19.07 62.67 -20.59C61.86 -22.1 60.78 -23.38 59.44 -24.42C58.1 -25.46 56.59 -26.28 54.92 -26.89C53.25 -27.5 51.58 -27.93 49.91 -28.18L49.91 -28.48C51.78 -28.89 53.42 -29.52 54.84 -30.38C56.26 -31.24 57.44 -32.23 58.37 -33.35C59.31 -34.46 60.02 -35.68 60.5 -36.99C60.98 -38.31 61.22 -39.65 61.22 -41.02C61.22 -43.65 60.63 -45.79 59.44 -47.44C58.25 -49.08 56.72 -50.36 54.84 -51.27C52.97 -52.18 50.87 -52.8 48.54 -53.13C46.21 -53.46 43.93 -53.63 41.7 -53.63C40.18 -53.63 38.8 -53.6 37.56 -53.55C36.32 -53.5 35.17 -53.45 34.11 -53.4C33.04 -53.35 32.03 -53.3 31.07 -53.25C30.11 -53.2 29.09 -53.17 28.03 -53.17L18.08 -53.17L18.08 -48.92L24.99 -48.92L24.99 -4.25L18.08 -4.25ZM41.4 -3.8C39.07 -3.8 37.36 -3.86 36.27 -3.99C35.18 -4.11 34.26 -4.28 33.5 -4.48L33.5 -25.07L39.73 -25.07C41.8 -25.07 43.78 -24.91 45.65 -24.61C47.53 -24.31 49.16 -23.76 50.55 -22.98C51.94 -22.19 53.06 -21.13 53.89 -19.79C54.73 -18.45 55.15 -16.76 55.15 -14.74C55.15 -13.12 54.8 -11.63 54.12 -10.29C53.44 -8.95 52.49 -7.8 51.27 -6.84C50.06 -5.87 48.6 -5.13 46.9 -4.6C45.21 -4.06 43.37 -3.8 41.4 -3.8ZM37.6 -29.02L33.5 -29.02L33.5 -48.99C34.31 -49.1 35.31 -49.18 36.5 -49.26C37.69 -49.34 39.14 -49.37 40.87 -49.37C44.51 -49.37 47.4 -48.59 49.53 -47.02C51.65 -45.45 52.72 -42.99 52.72 -39.65C52.72 -37.22 51.93 -35.11 50.36 -33.31C48.79 -31.51 46.72 -30.21 44.13 -29.4C43.27 -29.3 42.22 -29.21 40.98 -29.13C39.74 -29.05 38.61 -29.02 37.6 -29.02Z M94.34 0L94.34 -4.25L87.43 -4.25L87.43 -48.92L94.34 -48.92L94.34 -53.17L72.01 -53.17L72.01 -48.92L78.92 -48.92L78.92 -4.25L72.01 -4.25L72.01 0Z M136.88 0L136.88 -4.25L129.06 -4.25L129.06 -48.92L142.65 -48.92L144.17 -47.25L144.17 -37.45L149.64 -37.45L149.64 -53.17L99.96 -53.17L99.96 -37.45L105.43 -37.45L105.43 -47.25L106.95 -48.92L120.55 -48.92L120.55 -4.25L112.72 -4.25L112.72 0Z"></path></g><g id="SvgjsG110603" class="text" transform="translate(312.9353949868745, 116.7790143625349) scale(1)" light-content="false" fill="#a31f2e"><path d="M-60.2 -0.28L-60.2 -3.92C-63.56 -3.64 -66.08 -3.5 -67.76 -3.5C-68.04 -3.5 -68.27 -3.59 -68.46 -3.78C-68.65 -3.97 -68.74 -4.2 -68.74 -4.48L-68.74 -9.94C-68.74 -10.69 -68.37 -11.06 -67.62 -11.06L-60.2 -11.06L-60.2 -14.84L-69.16 -14.84C-70.56 -14.84 -71.66 -14.44 -72.45 -13.65C-73.24 -12.86 -73.64 -11.76 -73.64 -10.36L-73.64 -3.92C-73.64 -2.65 -73.26 -1.63 -72.49 -0.87C-71.73 -0.1 -70.71 0.28 -69.44 0.28C-66.77 0.28 -63.69 0.09 -60.2 -0.28Z M-42.84 -4.2L-42.84 -10.64C-42.84 -12.04 -43.24 -13.14 -44.03 -13.93C-44.82 -14.72 -45.92 -15.12 -47.32 -15.12L-53.76 -15.12C-55.16 -15.12 -56.26 -14.72 -57.05 -13.93C-57.84 -13.14 -58.24 -12.04 -58.24 -10.64L-58.24 -4.2C-58.24 -2.8 -57.84 -1.7 -57.05 -0.91C-56.26 -0.12 -55.16 0.28 -53.76 0.28L-47.32 0.28C-45.92 0.28 -44.82 -0.12 -44.03 -0.91C-43.24 -1.7 -42.84 -2.8 -42.84 -4.2ZM-47.74 -10.22L-47.74 -4.62C-47.74 -3.87 -48.11 -3.5 -48.86 -3.5L-52.22 -3.5C-52.97 -3.5 -53.34 -3.87 -53.34 -4.62L-53.34 -10.22C-53.34 -10.97 -52.97 -11.34 -52.22 -11.34L-48.86 -11.34C-48.11 -11.34 -47.74 -10.97 -47.74 -10.22Z M-32.06 -11.06L-31.08 -11.06C-30.8 -11.06 -30.57 -10.97 -30.38 -10.78C-30.19 -10.59 -30.1 -10.36 -30.1 -10.08L-30.1 0L-25.2 0L-25.2 -10.92C-25.2 -12.19 -25.58 -13.21 -26.35 -13.97C-27.11 -14.74 -28.13 -15.12 -29.4 -15.12L-30.66 -15.12C-31.29 -15.12 -32.07 -14.98 -33 -14.71C-33.92 -14.44 -34.82 -14.02 -35.7 -13.44L-35.98 -14.84L-40.32 -14.84L-40.32 0L-35.42 0L-35.42 -10.5C-34.17 -10.87 -33.05 -11.06 -32.06 -11.06Z M-23.24 -3.92L-23.24 -0.28C-19.45 0.09 -15.9 0.28 -12.6 0.28C-11.33 0.28 -10.31 -0.1 -9.55 -0.87C-8.78 -1.63 -8.4 -2.65 -8.4 -3.92L-8.4 -5.04C-8.4 -6.31 -8.78 -7.33 -9.55 -8.09C-10.31 -8.86 -11.33 -9.24 -12.6 -9.24L-17.64 -9.24C-17.92 -9.24 -18.15 -9.33 -18.34 -9.52C-18.53 -9.71 -18.62 -9.94 -18.62 -10.22C-18.62 -10.5 -18.53 -10.73 -18.34 -10.92C-18.15 -11.11 -17.92 -11.2 -17.64 -11.2L-9.8 -11.2L-9.8 -14.84L-19.32 -14.84C-20.59 -14.84 -21.61 -14.46 -22.37 -13.69C-23.14 -12.93 -23.52 -11.91 -23.52 -10.64L-23.52 -9.66C-23.52 -8.39 -23.14 -7.37 -22.37 -6.61C-21.61 -5.84 -20.59 -5.46 -19.32 -5.46L-13.3 -5.46L-13.3 -4.48C-13.3 -4.2 -13.39 -3.97 -13.58 -3.78C-13.77 -3.59 -14 -3.5 -14.28 -3.5C-16.46 -3.5 -19.45 -3.64 -23.24 -3.92Z M0.42 -3.78L-0.56 -3.78C-0.84 -3.78 -1.07 -3.87 -1.26 -4.06C-1.45 -4.25 -1.54 -4.48 -1.54 -4.76L-1.54 -14.84L-6.44 -14.84L-6.44 -3.92C-6.44 -2.65 -6.06 -1.63 -5.29 -0.87C-4.53 -0.1 -3.51 0.28 -2.24 0.28L-0.98 0.28C-0.35 0.28 0.43 0.14 1.36 -0.13C2.28 -0.4 3.18 -0.82 4.06 -1.4L4.34 0L8.68 0L8.68 -14.84L3.78 -14.84L3.78 -4.34C2.53 -3.97 1.41 -3.78 0.42 -3.78Z M19.04 0L19.04 -3.64L17.36 -3.64C17.08 -3.64 16.85 -3.73 16.66 -3.92C16.47 -4.11 16.38 -4.34 16.38 -4.62L16.38 -19.6L11.48 -19.6L11.48 -3.92C11.48 -2.65 11.86 -1.63 12.63 -0.87C13.39 -0.1 14.34 0.28 15.47 0.28C16.6 0.28 17.79 0.19 19.04 0Z M30.8 0L30.8 -3.64L27.16 -3.64C26.88 -3.64 26.65 -3.73 26.46 -3.92C26.27 -4.11 26.18 -4.34 26.18 -4.62L26.18 -11.06L29.68 -11.06L29.68 -14.84L26.18 -14.84L26.18 -18.2L21.84 -18.2L21.28 -14.84L19.6 -14.84L19.6 -11.06L21.28 -11.06L21.28 -3.92C21.28 -2.65 21.66 -1.63 22.43 -0.87C23.19 -0.1 24.21 0.28 25.48 0.28C27.22 0.28 28.99 0.19 30.8 0Z M38.36 -14.28L31.36 -14.28L31.36 -10.5L33.46 -10.5L33.46 0L38.36 0ZM33.46 -19.88L33.46 -15.96L38.36 -15.96L38.36 -19.88Z M49.42 -11.06L50.4 -11.06C50.68 -11.06 50.91 -10.97 51.1 -10.78C51.29 -10.59 51.38 -10.36 51.38 -10.08L51.38 0L56.28 0L56.28 -10.92C56.28 -12.19 55.9 -13.21 55.13 -13.97C54.37 -14.74 53.35 -15.12 52.08 -15.12L50.82 -15.12C50.19 -15.12 49.41 -14.98 48.48 -14.71C47.56 -14.44 46.66 -14.02 45.78 -13.44L45.5 -14.84L41.16 -14.84L41.16 0L46.06 0L46.06 -10.5C47.31 -10.87 48.43 -11.06 49.42 -11.06Z M68.46 -1.12L68.46 0.28C68.46 0.56 68.37 0.79 68.18 0.98C67.99 1.17 67.76 1.26 67.48 1.26C65.63 1.26 62.93 1.12 59.36 0.84L59.36 4.48C62.96 4.85 66.23 5.04 69.16 5.04C70.43 5.04 71.45 4.66 72.21 3.89C72.98 3.13 73.36 2.11 73.36 0.84L73.36 -14.84L63 -14.84C61.6 -14.84 60.5 -14.44 59.71 -13.65C58.92 -12.86 58.52 -11.76 58.52 -10.36L58.52 -4.76C58.52 -3.49 58.9 -2.47 59.67 -1.71C60.43 -0.94 61.45 -0.56 62.72 -0.56L63.7 -0.56C65.06 -0.56 66.65 -0.75 68.46 -1.12ZM65.1 -4.34L64.4 -4.34C64.12 -4.34 63.89 -4.43 63.7 -4.62C63.51 -4.81 63.42 -5.04 63.42 -5.32L63.42 -9.94C63.42 -10.69 63.79 -11.06 64.54 -11.06L68.46 -11.06L68.46 -4.62C67.4 -4.43 66.28 -4.34 65.1 -4.34Z"></path></g></g></g></svg>