<svg xmlns="http://www.w3.org/2000/svg" viewBox="59 29 867 942" width="512" height="512">
  <g fill="#a31f2e">
    <path d="M146.6 312.2L420 154.3c7.6 3.1 15.8 4.8 24.4 4.8 35.8 0 65-29.2 65-65s-29.2-65-65-65-64.8 29-65 64.7L97 256.9c-23.1 13.4-37.5 38.3-37.5 65.1v347.2c0 26.7 14.4 51.7 37.6 65.1l318 183.6c4.4 2.5 9.4 3.9 14.4 3.9s10-1.3 14.4-3.9c9-5.2 14.4-14.6 14.4-25v-9.3c0-15.2-8.2-29.3-21.3-36.9L146.6 679c-8.9-5.2-14.5-14.8-14.5-25.1V337.3c0-10.3 5.6-20 14.5-25.1zM405.4 78.9c6.1-15.7 21.3-26.7 39.1-26.7 2.2 0 4.3.2 6.4.5 2.6.4 5.1 1 7.4 1.9 16.4 5.7 28.1 21.3 28.1 39.6 0 20.1-14.2 37-33.1 41-2.8.6-5.8.9-8.8.9-23.2 0-42-18.8-42-42 0-5.4 1.1-10.5 2.9-15.2zm498.2 197.9L585.4 93.1c-4.5-2.6-9.5-3.9-14.6-3.9s-10.1 1.4-14.6 3.9c-9.1 5.3-14.6 14.7-14.6 25.3v12.9c0 12.6 6.8 24.3 17.7 30.6L854 332c8.6 4.9 13.9 14.1 13.9 24v318c0 9.9-5.3 19.1-13.9 24L587.6 848c-8.9-4.6-19-7.2-29.6-7.2-35.8 0-65 29.2-65 65s29.2 65 65 65c32.5 0 59.5-23.9 64.3-55.1l281.4-162.5c22.8-13.2 36.9-37.6 36.9-63.9V340.7c-.1-26.3-14.2-50.8-37-63.9zM587 936.1c-4.9 4.7-10.8 8.2-17.5 10.1-3.7 1.1-7.6 1.6-11.6 1.6h-1.3c-22.6-.7-40.7-19.2-40.7-41.9 0-23.2 18.8-42 42-42 2.2 0 4.4.2 6.5.5 20.1 3.1 35.5 20.5 35.5 41.5 0 11.9-4.9 22.6-12.9 30.2z"></path>
    <path d="M689.4 551L196.9 681.6c-8.6 2.3-16.8-13.8-12-23.6l11.3-23.3c9-18.6 22.7-31 38.9-35.3L724 469.8c8.6-2.3 16.8 13.8 12 23.6l-13.2 27.4c-7.8 15.9-19.5 26.6-33.4 30.2zm3.6 118.3l-304.9 80.8c-5.3 1.4-12.1-15-10-24.2l5.1-21.6c4-17.3 11.7-28.1 21.8-30.7l302.7-80.2c5.3-1.4 12.1 15 10 24.2l-5.9 25.4c-3.6 14.8-10.2 24-18.8 26.3zm-78.9-310.8l-304.9 80.8c-5.3 1.4-12.1-15-10-24.2l5.1-21.6c4-17.3 11.7-28.1 21.8-30.7l302.7-80.2c5.3-1.4 12.1 15 10 24.2l-5.9 25.4c-3.7 14.8-10.2 24-18.8 26.3zM778 418.1L285.6 548.6c-8.6 2.3-16.8-13.8-12-23.6l11.3-23.3c9-18.6 22.7-31 38.9-35.3l488.9-129.6c8.6-2.3 16.8 13.8 12 23.6l-13.2 27.4c-7.8 16-19.5 26.6-33.5 30.3z"></path>
  </g>
</svg>
