<svg viewBox="0 0 978 184" fill="none" xmlns="http://www.w3.org/2000/svg"><path fill="#292929" d="M949.18 39.2c-1.6-5.8-5-10.7-10.4-14.8-5.5-4-12.3-6-20.6-6a33 33 0 0 0-17 4.6c-5.2 3-9.8 7.5-13.9 13.5-7.4-12-17.6-18-30.6-18a34.8 34.8 0 0 0-31.3 18v-10c0-2.7-2.2-5-5-5.2h-37c-2.6 0-4.8 2.1-5.2 4.7v150.2a5.3 5.3 0 0 0 5 4.7h37.4a5.3 5.3 0 0 0 4.8-5.3V70.3c0-7.7 0-12.7.2-15.1.2-2.4 1-4.4 2.6-6a7.3 7.3 0 0 1 5.5-2.5c3.4 0 5.5 1.6 6.3 4.7.8 3.1 1.1 12.5 1.1 28.1v96.4a5.3 5.3 0 0 0 5 5h37.5a5.3 5.3 0 0 0 4.7-5v-99c0-13.7.5-22.2 1.5-25.4 1-3.2 3.2-4.8 6.7-4.8s5.5 1.6 6.4 4.9c1 3.2 1.4 11.7 1.4 25.3v99c0 2.7 2.3 4.9 5 5h37.5c2.3-.2 4.1-1.9 4.6-4V67.4c0-13-.7-22.5-2.3-28.3l.1.1Z"/><path fill="#292929" d="M232.78 21.3h-38.5a5.4 5.4 0 0 0-5.3 5.3v102.1c0 13-.3 20.8-1 23.2-.7 2.4-2.8 3.6-6.4 3.6-3.4 0-5.5-1.1-6.2-3.5-.8-2.3-1.2-9.7-1.2-22V26.3a5.3 5.3 0 0 0-4.8-5h-38.5a5.3 5.3 0 0 0-5.3 4.9v102.7c0 13.8.3 23 .9 27.5.5 4.6 2 9 4.2 13.3a25 25 0 0 0 10.7 10.2 38.3 38.3 0 0 0 18.1 3.9 35 35 0 0 0 31.8-18.7v10.5c0 2.6 2.2 4.9 5 5h24.5a5.3 5.3 0 0 0 5-5.2V26.3a5.3 5.3 0 0 0-5.2-5h.1Z"/><path fill="#292929" d="M92.18 21.3H53.68a5.4 5.4 0 0 0-5.3 5.3v102.1c0 13-.3 20.8-1 23.2-.7 2.4-2.8 3.6-6.4 3.6-3.4 0-5.5-1.1-6.2-3.5-.8-2.3-1.2-9.7-1.2-22V26.3a5.3 5.3 0 0 0-4.8-5H-9.72a5.3 5.3 0 0 0-5.3 4.9v102.7c0 13.8.3 23 .9 27.5.5 4.6 2 9 4.2 13.3a25 25 0 0 0 10.7 10.2 38.3 38.3 0 0 0 18.2 3.9 35 35 0 0 0 31.7-18.7v10.5c0 2.6 2.2 4.9 5 5h24.5a5.3 5.3 0 0 0 5-5.2V26.3a5.3 5.3 0 0 0-5.1-5h.1Z"/><path fill="#292929" d="M405.78 46.4V26.3a5.3 5.3 0 0 0-5-5h-38a5.4 5.4 0 0 0-5.4 5.3v102.1c0 13-.3 20.8-1 23.2-.6 2.4-2.8 3.6-6.3 3.6-3.5 0-5.5-1.1-6.3-3.5-.7-2.3-1-9.7-1-22V26.3a5.3 5.3 0 0 0-4.9-5h-38.5a5.3 5.3 0 0 0-5.3 4.9v102.7c0 14.6.7 24.4 2.1 29.5 1.5 5 4 9.6 7.6 13.8 3.6 4.2 8.2 7.2 13.8 9 5.6 1.8 12 2.7 19.2 2.7a35 35 0 0 0 31.8-18.7v10.5c0 2.6 2.2 4.9 5 5h24.6a5.3 5.3 0 0 0 5-5.2v-130h-2.3l5-2.1Z"/><path fill="#292929" d="M636.68 36.4c-4-5.9-9.2-10.4-15.8-13.5-6.6-3.1-14-4.6-22.3-4.6-8.1 0-15.5 1.5-22 4.6-6.6 3-12 7.5-16 13.4-4 5.9-7 12.6-9 20.2a90 90 0 0 0-2.9 22.6 90 90 0 0 0 2.6 22c1.8 7.3 4.6 13.9 8.3 19.7 3.8 5.8 8.8 10.4 15.2 13.8 6.4 3.3 14 5 22.8 5 8.4 0 16-1.6 22.6-4.8 6.6-3.2 12-7.7 16-13.5s7-12.5 8.7-20.2a96.3 96.3 0 0 0 2.5-22c0-8.2-1-16-2.8-23.2a57.6 57.6 0 0 0-8.9-19.5h1Zm-14 40c0 16.5-2.1 26.6-6.4 30.1-2.3 1.9-5 2.9-8 2.9s-5.8-1-8-3c-4.2-3.6-6.3-13.3-6.3-29.2 0-16.6 2.1-26.7 6.3-30.3 2.1-1.8 4.8-2.7 8-2.7s5.8 1 8 2.8c4.3 3.6 6.4 13.4 6.4 29.4Z"/><path fill="#292929" d="M505.78 21.3h-24.6a5 5 0 0 0-5 5.2v130h2.4l-5 2v20.1a5.3 5.3 0 0 0 5 5h38.5a5.3 5.3 0 0 0 5.3-5.3V75.3c0-13 .3-20.8 1-23.2.6-2.4 2.8-3.6 6.3-3.6 3.5 0 5.5 1.1 6.3 3.5.7 2.3 1 9.7 1 22v102.2a5.3 5.3 0 0 0 5 5h38.4a5.3 5.3 0 0 0 5.3-4.8V73.6c0-13.8-.3-23-.9-27.6-.5-4.5-2-9-4.2-13.2a25 25 0 0 0-10.7-10.2 38.3 38.3 0 0 0-18.1-4 35 35 0 0 0-31.8 18.8v-10.5c0-2.6-2.2-4.9-5-5h-9.2v-.6Z"/></svg>
