<svg xmlns="http://www.w3.org/2000/svg" width="209" height="20" viewBox="0 0 209 20" fill="none"><g clip-path="url(#clip0_7008_535)"><path d="M72.9034 4.69918H75.9269L71.1965 17.4874L71.1311 17.6642H68.2329L68.1702 17.4902L64.8207 8.43627L61.4683 17.4902L61.4056 17.6642H58.5075L58.4448 17.4902L53.713 4.70057H56.7365L59.9579 13.4037L63.1765 4.70057H66.4634L69.682 13.401L72.9006 4.70057L72.9034 4.69918ZM37.5113 0.694858H37.5002C36.1277 0.694858 34.9141 1.58703 34.5045 2.89675L32.4995 9.32844C32.3643 9.76269 31.9617 10.0592 31.5061 10.0592H27.4292C26.9735 10.0592 26.5709 9.76269 26.4357 9.32844L24.4307 2.89675C24.0225 1.58703 22.8089 0.694858 21.435 0.694858H21.3654C19.9929 0.694858 18.7793 1.58703 18.3697 2.89675L16.3647 9.32844C16.2295 9.76269 15.8269 10.0592 15.3713 10.0592H11.3654C10.9126 10.0592 10.5113 9.76687 10.3734 9.3354L8.30566 2.87448C7.89045 1.57589 6.68243 0.694858 5.31696 0.694858H5.2877C3.92363 0.694858 2.71561 1.57589 2.30039 2.87448L0 10.0592H7.30525C7.75947 10.0592 8.16075 10.3528 8.2973 10.7843L10.3692 17.3134C10.783 18.6148 11.9924 19.5 13.3593 19.5C14.7261 19.5 15.9495 18.605 16.3563 17.2912L18.3669 10.7913C18.5021 10.3556 18.9047 10.0578 19.3618 10.0578H23.4345C23.8915 10.0578 24.2942 10.3556 24.4293 10.7913L26.4399 17.2912C26.8454 18.6037 28.0617 19.5 29.437 19.5H29.4955C30.8707 19.5 32.0871 18.605 32.4925 17.2912L34.5031 10.7913C34.6383 10.3556 35.0409 10.0578 35.498 10.0578H42.7976L40.4986 2.87309C40.0834 1.5745 38.8754 0.693466 37.5099 0.693466L37.5113 0.694858ZM89.3419 7.7153C89.9174 8.70489 90.2058 9.85595 90.2058 11.1685C90.2058 12.481 89.9174 13.6334 89.3419 14.6216C88.7651 15.6112 87.9611 16.3851 86.9315 16.9446C85.9004 17.5041 84.7119 17.7839 83.3645 17.7839C82.0172 17.7839 80.7994 17.5041 79.7614 16.9446C78.7219 16.3851 77.9152 15.6112 77.3384 14.6216C76.7615 13.6334 76.4745 12.481 76.4745 11.1685C76.4745 9.85595 76.7629 8.7035 77.3384 7.7153C77.9138 6.7257 78.7219 5.95601 79.7614 5.40484C80.7994 4.85367 82.0018 4.57809 83.3645 4.57809C84.7272 4.57809 85.9004 4.85367 86.9315 5.40484C87.9625 5.95601 88.7651 6.72709 89.3419 7.7153ZM87.0165 11.1921C87.0165 10.3974 86.8618 9.69588 86.5539 9.08765C86.2446 8.47942 85.8154 8.00202 85.2636 7.65266C84.7119 7.3047 84.0793 7.12933 83.3645 7.12933C82.6497 7.12933 81.9893 7.30331 81.4292 7.65266C80.8691 8.00202 80.4343 8.47942 80.1264 9.08765C79.8171 9.69588 79.6638 10.3974 79.6638 11.1921C79.6638 11.9869 79.8171 12.7162 80.1264 13.3328C80.4343 13.9493 80.8691 14.4267 81.4292 14.7677C81.9893 15.1087 82.6344 15.2786 83.3645 15.2786C84.0946 15.2786 84.7119 15.1087 85.2636 14.7677C85.8154 14.4267 86.2459 13.9493 86.5539 13.3328C86.8618 12.7162 87.0165 12.0036 87.0165 11.1921ZM96.1219 7.17109V4.69918H92.9562V17.6628H96.1219V11.3884C96.1219 10.5936 96.3002 9.88935 96.6569 9.27276C97.0136 8.65618 97.525 8.18156 98.191 7.84891C98.857 7.51626 99.6442 7.38265 100.553 7.44806V4.57809C99.4659 4.57809 98.524 4.83836 97.7284 5.35613C97.061 5.79177 96.526 6.39862 96.1219 7.17109ZM102.891 17.6628H106.056V0.5H102.891V17.6628ZM119.52 0.5H122.686V17.6628H119.52V15.5875C119.141 16.1638 118.672 16.6356 118.107 16.9933C117.28 17.5208 116.289 17.7839 115.137 17.7839C113.904 17.7839 112.82 17.5041 111.886 16.9446C110.953 16.3851 110.227 15.6029 109.707 14.5979C109.187 13.593 108.928 12.442 108.928 11.1448C108.928 9.8476 109.187 8.67984 109.707 7.69024C110.227 6.70204 110.944 5.93096 111.862 5.37979C112.779 4.82862 113.846 4.55304 115.064 4.55304C116.282 4.55304 117.256 4.82027 118.084 5.35613C118.656 5.72636 119.134 6.20654 119.52 6.78972V0.5ZM119.52 11.2172C119.52 10.4071 119.365 9.69728 119.058 9.08904C118.748 8.48081 118.315 7.99923 117.755 7.64153C117.195 7.28522 116.55 7.10706 115.819 7.10706C115.089 7.10706 114.468 7.28522 113.908 7.64153C113.348 7.99784 112.913 8.48498 112.605 9.10018C112.296 9.71676 112.134 10.4224 112.119 11.2158C112.134 12.0105 112.297 12.7162 112.605 13.3328C112.913 13.9493 113.348 14.4309 113.908 14.7803C114.468 15.1296 115.105 15.3036 115.819 15.3036C116.534 15.3036 117.195 15.1296 117.755 14.7803C118.315 14.4323 118.748 13.9493 119.058 13.3328C119.365 12.7162 119.52 12.0105 119.52 11.2158V11.2172ZM133.995 10.8038C133.467 10.5115 132.911 10.2777 132.328 10.0981C131.742 9.91997 131.191 9.75434 130.671 9.59985C130.151 9.44535 129.725 9.25606 129.393 9.0278C129.06 8.80093 128.894 8.50169 128.894 8.12867C128.894 7.69024 129.056 7.37847 129.381 7.19196C129.705 7.00546 130.128 6.9122 130.647 6.9122C131.199 6.9122 131.816 7.01381 132.498 7.21563C133.179 7.41883 133.837 7.70695 134.469 8.07857L135.613 5.8892C134.964 5.46748 134.217 5.139 133.373 4.90378C132.528 4.66856 131.684 4.55025 130.841 4.55025C129.998 4.55025 129.152 4.68387 128.405 4.9511C127.659 5.21834 127.058 5.63589 126.604 6.20376C126.15 6.77163 125.923 7.4926 125.923 8.36807C125.923 9.14611 126.084 9.77104 126.409 10.2415C126.733 10.7119 127.151 11.0891 127.663 11.3717C128.174 11.6556 128.722 11.8825 129.307 12.0523C129.891 12.2221 130.438 12.3933 130.951 12.5631C131.462 12.7329 131.88 12.9361 132.205 13.1713C132.53 13.4065 132.691 13.735 132.691 14.1567C132.691 14.4657 132.611 14.7121 132.447 14.8986C132.284 15.0851 132.057 15.2271 131.766 15.3245C131.475 15.4219 131.142 15.4706 130.769 15.4706C130.07 15.4706 129.311 15.3287 128.492 15.0447C127.671 14.7608 126.962 14.3599 126.361 13.8408L125.266 15.9564C125.948 16.5563 126.772 17.0114 127.738 17.319C128.704 17.6266 129.673 17.7811 130.647 17.7811C131.621 17.7811 132.425 17.6391 133.204 17.3552C133.983 17.0712 134.607 16.6426 135.079 16.0663C135.55 15.4901 135.786 14.765 135.786 13.8895C135.786 13.0948 135.619 12.4545 135.287 11.9674C134.955 11.4802 134.524 11.0919 133.997 10.7996L133.995 10.8038ZM144.38 14.9988C144.071 15.0879 143.788 15.1324 143.527 15.1324C143.105 15.1324 142.772 15.0099 142.528 14.7677C142.284 14.5242 142.163 14.0788 142.163 13.4302V7.39796H145.889V5.18493H142.163V1.63435H139.023V5.18493H137.196V7.39796H139.023V13.9647C139.023 14.8401 139.193 15.5653 139.534 16.1415C139.875 16.7177 140.338 17.1381 140.922 17.4067C141.507 17.6739 142.146 17.8075 142.846 17.8075C143.414 17.8075 143.977 17.7226 144.539 17.5528C145.099 17.3816 145.621 17.1506 146.109 16.8597L145.379 14.5729C145.022 14.7677 144.689 14.9097 144.381 14.9988H144.38ZM151.758 7.17109V4.69918H148.592V17.6628H151.758V11.3884C151.758 10.5936 151.936 9.88935 152.293 9.27276C152.649 8.65618 153.161 8.18156 153.827 7.84891C154.493 7.51626 155.28 7.38265 156.188 7.44806V4.57809C155.102 4.57809 154.16 4.83836 153.364 5.35613C152.697 5.79177 152.162 6.39862 151.758 7.17109ZM169.605 8.18852C170.01 9.33122 170.157 10.6897 170.042 12.2624H160.402C160.486 12.6494 160.611 13.0071 160.778 13.3328C161.111 13.9814 161.57 14.4796 162.153 14.829C162.739 15.1769 163.412 15.3509 164.174 15.3509C165.553 15.3509 166.73 14.8568 167.704 13.8672L169.385 15.5458C168.735 16.2598 167.948 16.811 167.023 17.1993C166.098 17.589 165.067 17.7839 163.931 17.7839C162.567 17.7839 161.387 17.5041 160.388 16.9446C159.389 16.3851 158.61 15.6154 158.05 14.6341C157.49 13.6529 157.21 12.506 157.21 11.1921C157.21 9.87821 157.49 8.72716 158.05 7.73896C158.61 6.75075 159.389 5.97967 160.388 5.4285C161.386 4.87734 162.534 4.5934 163.834 4.5767C165.376 4.5767 166.622 4.89265 167.571 5.52593C168.52 6.15783 169.198 7.04582 169.604 8.18852H169.605ZM167.194 10.1956C167.161 9.51495 167.008 8.93455 166.732 8.45715C166.456 7.97835 166.07 7.60534 165.575 7.33811C165.079 7.07087 164.516 6.93726 163.882 6.93726C163.152 6.93726 162.52 7.10706 161.983 7.44806C161.448 7.78906 161.029 8.26646 160.729 8.88305C160.536 9.27972 160.406 9.71815 160.336 10.1956H167.194ZM183.605 9.15028L183.63 17.6628H180.513L180.509 16.1081C180.169 16.5326 179.748 16.8806 179.247 17.1506C178.436 17.589 177.454 17.8075 176.301 17.8075C175.376 17.8075 174.572 17.6294 173.891 17.2731C173.209 16.9167 172.681 16.4338 172.308 15.8255C171.935 15.2173 171.748 14.5325 171.748 13.7698C171.748 12.57 172.177 11.6264 173.038 10.936C173.898 10.2471 175.116 9.89352 176.69 9.87821H180.49V9.4885C180.49 8.71046 180.242 8.09805 179.746 7.65266C179.25 7.20727 178.515 6.98319 177.543 6.98319C176.942 6.98319 176.312 7.09314 175.656 7.31166C174.998 7.53018 174.337 7.84335 173.672 8.24837L172.528 6.20515C173.145 5.83214 173.738 5.52872 174.306 5.2935C174.874 5.05827 175.471 4.88012 176.095 4.75903C176.719 4.63655 177.438 4.5767 178.251 4.5767C179.955 4.5767 181.27 4.98172 182.195 5.79317C183.12 6.60461 183.591 7.72365 183.608 9.15028H183.605ZM180.499 13.0683L180.497 11.9465H177.203C176.375 11.9465 175.758 12.0759 175.352 12.3362C174.947 12.5965 174.744 13.0252 174.744 13.625C174.744 14.1762 174.95 14.623 175.365 14.9626C175.779 15.3036 176.343 15.4734 177.056 15.4734C177.69 15.4734 178.262 15.3635 178.773 15.1449C179.284 14.9264 179.69 14.6258 179.991 14.2444C180.269 13.8909 180.438 13.4984 180.501 13.0669L180.499 13.0683ZM208.416 6.89968C208.026 6.162 207.478 5.58996 206.772 5.18493C206.066 4.77991 205.225 4.5767 204.252 4.5767C203.131 4.5767 202.166 4.80774 201.355 5.26983C200.542 5.73193 199.918 6.45429 199.479 7.43414C199.451 7.49817 199.426 7.56637 199.4 7.63179C199.318 7.3743 199.22 7.12794 199.102 6.89968C198.72 6.162 198.177 5.58996 197.47 5.18493C196.764 4.77991 195.915 4.5767 194.926 4.5767C193.822 4.5767 192.861 4.80774 192.04 5.26983C191.335 5.6679 190.771 6.25943 190.349 7.04165V4.69918H187.183V17.6628H190.349V11.2659C190.349 10.1635 190.644 9.24354 191.238 8.50586C191.83 7.76819 192.638 7.391 193.661 7.3743C194.554 7.3743 195.248 7.64153 195.742 8.17739C196.237 8.71185 196.485 9.45788 196.485 10.4141V17.6628H199.674V11.2659C199.674 10.1635 199.967 9.24354 200.551 8.50586C201.136 7.76819 201.939 7.391 202.961 7.3743C203.854 7.3743 204.552 7.64153 205.055 8.17739C205.558 8.71185 205.811 9.45788 205.811 10.4141V17.6628H209V9.56366C209 8.52674 208.805 7.63875 208.416 6.90107V6.89968Z" fill="currentColor"></path></g><defs><clipPath id="clip0_7008_535"><rect width="209" height="19" fill="white" transform="translate(0 0.5)"></rect></clipPath></defs></svg>